<svg height="489pt" viewBox="0 -8 489.6 489" width="489pt" xmlns="http://www.w3.org/2000/svg"><path d="m172.800781 112.300781h16v32h-16zm0 0" fill="#991616"/><path d="m140.800781 128.300781h16v40h-16zm0 0" fill="#e9ab16"/><path d="m108.800781 152.300781h16v40h-16zm0 0" fill="#187c18"/><path d="m76.800781 176.300781h16v40h-16zm0 0" fill="#152d77"/><path d="m44.800781 200.300781h16v40h-16zm0 0" fill="#d1d1d1"/><path d="m12.800781 216.300781h16v40h-16zm0 0" fill="#e9ab16"/><path d="m212.800781 78.699219v9.601562h14.398438l-217.597657 150.398438-9.601562-12.800781zm0 0" fill="#bcbcbc"/><path d="m20.800781 432.300781h448v32h-448zm0 0" fill="#bcbcbc"/><path d="m400 366.699219c-11.199219-55.199219-59.199219-94.398438-115.199219-94.398438h-80c-56 0-104 39.199219-115.199219 94.398438l-12.800781 65.601562h336zm0 0" fill="#e0e0e0"/><g fill="#bcbcbc"><path d="m108.800781 392.300781h16v16h-16zm0 0"/><path d="m140.800781 392.300781h16v16h-16zm0 0"/><path d="m172.800781 392.300781h16v16h-16zm0 0"/><path d="m204.800781 392.300781h16v16h-16zm0 0"/><path d="m236.800781 392.300781h16v16h-16zm0 0"/><path d="m268.800781 392.300781h16v16h-16zm0 0"/><path d="m300.800781 392.300781h16v16h-16zm0 0"/><path d="m332.800781 392.300781h16v16h-16zm0 0"/><path d="m364.800781 392.300781h16v16h-16zm0 0"/></g><path d="m188.800781 208.300781h112v32h-112zm0 0" fill="#991616"/><path d="m212.800781 56.300781h64v32h-64zm0 0" fill="#c68d1a"/><path d="m244.800781.300781-24 56h48zm0 0" fill="#e9ab16"/><path d="m260.800781 88.300781h-32l-32 96v24h96v-24zm0 0" fill="#e9ab16"/><path d="m300.800781 112.300781h16v32h-16zm0 0" fill="#991616"/><path d="m332.800781 128.300781h16v40h-16zm0 0" fill="#e9ab16"/><path d="m364.800781 152.300781h16v40h-16zm0 0" fill="#187c18"/><path d="m396.800781 176.300781h16v40h-16zm0 0" fill="#152d77"/><path d="m428.800781 200.300781h16v40h-16zm0 0" fill="#d1d1d1"/><path d="m460.800781 216.300781h16v40h-16zm0 0" fill="#e9ab16"/><path d="m4.800781 456.300781h480v16h-480zm0 0" fill="#898989"/><path d="m20.800781 432.300781h120v24h-120zm0 0" fill="#d1d1d1"/><path d="m340.800781 432.300781h128v24h-128zm0 0" fill="#d1d1d1"/><path d="m196.800781 240.300781h96v32h-96zm0 0" fill="#c68d1a"/><path d="m276.800781 78.699219v9.601562h-14.402343l217.601562 150.398438 9.601562-12.800781zm0 0" fill="#bcbcbc"/></svg>